<?xml version="1.0" encoding="iso-8859-1"?>
<!-- Generator: Adobe Illustrator 18.1.1, SVG Export Plug-In . SVG Version: 6.00 Build 0)  -->
<svg version="1.1" id="Capa_1" xmlns="http://www.w3.org/2000/svg" xmlns:xlink="http://www.w3.org/1999/xlink" x="0px" y="0px"
	 viewBox="0 0 490.572 490.572" style="enable-background:new 0 0 490.572 490.572;" xml:space="preserve">
<g>
	<g>
		<path style="fill:#010002;" d="M299.716,101.239c-42.781,10.616-76.319,56.014-98.34,86.984
			c-0.878,0.61-37.643,66.606-65.451,73.637c-8.218,2.073-14.347,8.982-13.347,17.403l6.47,54.396
			c1,8.421,8.437,15.103,16.395,18.021c10.356,3.804,57.282,10.909,78.506,14.079H86.414c4.918-7.007,7.698-15.176,8.015-23.63
			l18.679-2.642l-9.063-64.199l-19.468,2.756c-2.951-7.625-7.942-14.258-14.64-19.297c-19.639-14.778-47.642-10.819-62.419,8.819
			c-12.689,16.859-8.137,38.342,4.869,53.868c-5.918,14.184-5.983,31.458,1.861,44.325H7.746v77.579h46.918v40.497h61.111v-40.497
			h261.886v40.497h61.111v-40.497h46.918v-77.579H365.062c0.098-0.024,0.187-0.041,0.276-0.065
			c85.366-21.183,139.877-97.559,121.758-170.578S385.082,80.056,299.716,101.239z M25.897,281.401
			c7.145-9.494,20.679-11.404,30.173-4.268c4.763,3.585,7.738,8.901,8.381,14.965l1.26,11.851l18.736-2.65l2.626,18.606
			l-19.387,2.739l3.056,12.38c1.593,6.422,0.301,13.03-3.536,18.135c-7.145,9.494-20.679,11.404-30.173,4.268
			c-9.315-7.007-11.299-20.395-4.43-29.848l10.079-10.697l-12.469-5.267C20.67,304.429,18.752,290.895,25.897,281.401z
			 M361.615,169.292c-39.172-10.917-71.613,3.959-85.675,42.838c-7.072,19.557-38.497,11.12-31.352-8.641
			c20.029-55.388,68.499-81.473,125.668-65.549C390.431,143.557,381.847,174.925,361.615,169.292z"/>
		<path style="fill:#010002;" d="M148.598,197.221c6.584-28.247,1.601-52.413-11.404-77.953
			c-15.713-30.856-42.342-55.746-29.238-92.747c7.015-19.817-24.41-28.263-31.352-8.641c-23.89,67.483,55.461,107.159,40.643,170.7
			C112.483,208.975,143.834,217.64,148.598,197.221z"/>
		<path style="fill:#010002;" d="M208.782,142.776c0.699-19.907-6.56-37.083-16.29-54.071
			c-9.689-16.907-25.914-35.457-15.729-55.591c9.437-18.663-18.606-35.124-28.076-16.412c-10.559,20.866-9.218,39.261-0.211,60.371
			c9.51,22.297,28.702,39.96,27.8,65.695C175.536,163.748,208.05,163.683,208.782,142.776z"/>
	</g>
</g>
<g>
</g>
<g>
</g>
<g>
</g>
<g>
</g>
<g>
</g>
<g>
</g>
<g>
</g>
<g>
</g>
<g>
</g>
<g>
</g>
<g>
</g>
<g>
</g>
<g>
</g>
<g>
</g>
<g>
</g>
</svg>
