<?xml version="1.0" encoding="iso-8859-1"?>
<!-- Generator: Adobe Illustrator 18.1.1, SVG Export Plug-In . SVG Version: 6.00 Build 0)  -->
<svg version="1.1" id="Capa_1" xmlns="http://www.w3.org/2000/svg" xmlns:xlink="http://www.w3.org/1999/xlink" x="0px" y="0px"
	 viewBox="0 0 42.515 42.515" style="enable-background:new 0 0 42.515 42.515;" xml:space="preserve">
<g>
	<g id="b59_meat">
		<path d="M22.475,37.975v-3.716c0.113-7.966,9.018-12.425,9.018-22.841C31.493,5.123,26.901,0,21.258,0
			c-5.647,0-10.236,5.123-10.236,11.417c0,12.444,9.017,14.673,9.017,22.854v3.704c-1.1,0-1.988,1.015-1.988,2.271
			c0,1.254,0.889,2.269,1.988,2.269c0.461,0,0.88-0.186,1.22-0.489c0.338,0.304,0.758,0.489,1.217,0.489
			c1.101,0,1.988-1.015,1.988-2.269C24.463,38.989,23.576,37.975,22.475,37.975z M21.258,5.614c-1.989,0-3.602-0.898-3.602-2.008
			c0-1.107,1.612-2.007,3.602-2.007s3.602,0.899,3.602,2.007C24.86,4.716,23.248,5.614,21.258,5.614z"/>
	</g>
	<g id="Capa_1_17_">
	</g>
</g>
<g>
</g>
<g>
</g>
<g>
</g>
<g>
</g>
<g>
</g>
<g>
</g>
<g>
</g>
<g>
</g>
<g>
</g>
<g>
</g>
<g>
</g>
<g>
</g>
<g>
</g>
<g>
</g>
<g>
</g>
</svg>
